<svg width="15" height="15" viewBox="0 0 15 15" fill="none" xmlns="http://www.w3.org/2000/svg">
<path d="M6.81251 1.31249C3.93751 1.62499 1.62501 3.93749 1.31251 6.74999C1.00001 9.68749 2.68751 12.3125 5.25001 13.3125C5.43751 13.375 5.62501 13.25 5.62501 13V12C5.62501 12 5.37501 12.0625 5.06251 12.0625C4.18751 12.0625 3.81251 11.3125 3.75001 10.875C3.68751 10.625 3.56251 10.4375 3.37501 10.25C3.18751 10.1875 3.12501 10.1875 3.12501 10.125C3.12501 9.99999 3.31251 9.99999 3.37501 9.99999C3.75001 9.99999 4.06251 10.4375 4.18751 10.625C4.50001 11.125 4.87501 11.25 5.06251 11.25C5.31251 11.25 5.50001 11.1875 5.62501 11.125C5.68751 10.6875 5.87501 10.25 6.25001 9.99999C4.81251 9.68749 3.75001 8.87499 3.75001 7.49999C3.75001 6.81249 4.06251 6.12499 4.50001 5.62499C4.43751 5.49999 4.37501 5.18749 4.37501 4.74999C4.37501 4.49999 4.37501 4.12499 4.56251 3.74999C4.56251 3.74999 5.43751 3.74999 6.31251 4.56249C6.62501 4.43749 7.06251 4.37499 7.50001 4.37499C7.93751 4.37499 8.37501 4.43749 8.75001 4.56249C9.56251 3.74999 10.5 3.74999 10.5 3.74999C10.625 4.12499 10.625 4.49999 10.625 4.74999C10.625 5.24999 10.5625 5.49999 10.5 5.62499C10.9375 6.12499 11.25 6.74999 11.25 7.49999C11.25 8.87499 10.1875 9.68749 8.75001 9.99999C9.12501 10.3125 9.37501 10.875 9.37501 11.4375V13.0625C9.37501 13.25 9.56251 13.4375 9.81251 13.375C12.125 12.4375 13.75 10.1875 13.75 7.56249C13.75 3.81249 10.5625 0.874986 6.81251 1.31249Z" fill="#00000C"/>
</svg>
