<svg width="92" height="102" viewBox="0 0 92 102" fill="none" xmlns="http://www.w3.org/2000/svg">
<g filter="url(#filter0_d)">
<path d="M15 32.4557L36.4347 11H63.5653L85 32.4557V69.2154L63.5653 90.6711H36.4347L15 69.2154V32.4557Z" stroke="url(#paint0_linear)" shape-rendering="crispEdges"/>
</g>
<path d="M68.4594 49.3542L51.7059 32.6045C51.2413 32.142 50.6124 31.8823 49.9568 31.8823C49.3013 31.8823 48.6724 32.142 48.2078 32.6045L44.7366 36.0795L49.148 40.4929C49.6685 40.317 50.2279 40.2905 50.7626 40.4164C51.2974 40.5423 51.7862 40.8155 52.1736 41.2051C52.561 41.5947 52.8314 42.085 52.9543 42.6205C53.0772 43.156 53.0475 43.7152 52.8687 44.2347L57.117 48.4888C57.746 48.2681 58.4314 48.268 59.0604 48.4885C59.6895 48.7091 60.2247 49.1371 60.5782 49.7023C60.9317 50.2674 61.0823 50.936 61.0053 51.5981C60.9283 52.2602 60.6283 52.8765 60.1546 53.3454C59.0052 54.4967 57.1497 54.4967 55.9984 53.3454C55.5894 52.936 55.31 52.4153 55.195 51.8482C55.08 51.2811 55.1345 50.6926 55.3517 50.1563L51.372 46.1977V56.6305C51.6521 56.7668 51.9208 56.9548 52.153 57.187C52.7016 57.7395 53.0095 58.4865 53.0095 59.2651C53.0095 60.0437 52.7016 60.7907 52.153 61.3432C51.8792 61.6174 51.5541 61.835 51.1962 61.9834C50.8383 62.1318 50.4546 62.2082 50.0672 62.2082C49.6797 62.2082 49.296 62.1318 48.9381 61.9834C48.5802 61.835 48.2551 61.6174 47.9814 61.3432C47.7082 61.0709 47.4915 60.7473 47.3436 60.391C47.1957 60.0347 47.1196 59.6528 47.1196 59.267C47.1196 58.8813 47.1957 58.4993 47.3436 58.1431C47.4915 57.7868 47.7082 57.4632 47.9814 57.1908C48.273 56.903 48.5992 56.6842 48.9485 56.5403V46.0058C48.5897 45.8589 48.2636 45.6424 47.989 45.3687C47.7144 45.095 47.4968 44.7696 47.3487 44.4114C47.2006 44.0531 47.125 43.669 47.1262 43.2813C47.1274 42.8936 47.2055 42.5101 47.3558 42.1527L43.0192 37.795L31.531 49.2736C30.5715 50.2407 30.5715 51.8065 31.531 52.7736L48.2845 69.5233C48.5138 69.7531 48.7861 69.9355 49.0859 70.0599C49.3857 70.1843 49.7071 70.2483 50.0317 70.2483C50.3562 70.2483 50.6776 70.1843 50.9774 70.0599C51.2772 69.9355 51.5496 69.7531 51.7788 69.5233L68.4537 52.8504C68.6846 52.6217 68.868 52.3497 68.9934 52.0499C69.1188 51.7501 69.1836 51.4284 69.1841 51.1035C69.1846 50.7785 69.1209 50.4567 68.9965 50.1564C68.8721 49.8562 68.6896 49.5836 68.4594 49.3542Z" fill="url(#paint1_linear)"/>
<defs>
<filter id="filter0_d" x="0.5" y="0.5" width="91" height="100.671" filterUnits="userSpaceOnUse" color-interpolation-filters="sRGB">
<feFlood flood-opacity="0" result="BackgroundImageFix"/>
<feColorMatrix in="SourceAlpha" type="matrix" values="0 0 0 0 0 0 0 0 0 0 0 0 0 0 0 0 0 0 127 0" result="hardAlpha"/>
<feOffset dx="-4"/>
<feGaussianBlur stdDeviation="5"/>
<feComposite in2="hardAlpha" operator="out"/>
<feColorMatrix type="matrix" values="0 0 0 0 0.239216 0 0 0 0 0.352941 0 0 0 0 0.996078 0 0 0 1 0"/>
<feBlend mode="normal" in2="BackgroundImageFix" result="effect1_dropShadow"/>
<feBlend mode="normal" in="SourceGraphic" in2="effect1_dropShadow" result="shape"/>
</filter>
<linearGradient id="paint0_linear" x1="45.5" y1="40.5" x2="101.345" y2="42.6048" gradientUnits="userSpaceOnUse">
<stop stop-color="#3D5AFE" stop-opacity="0"/>
<stop offset="1" stop-color="#3D5AFE"/>
</linearGradient>
<linearGradient id="paint1_linear" x1="18.9341" y1="50.1518" x2="65.5296" y2="50.1518" gradientUnits="userSpaceOnUse">
<stop offset="0.276042" stop-color="#3D5AFE" stop-opacity="0"/>
<stop offset="1" stop-color="#3D5AFE"/>
</linearGradient>
</defs>
</svg>
