<svg width="15" height="15" viewBox="0 0 15 15" fill="none" xmlns="http://www.w3.org/2000/svg">
<path d="M8.465 6.53504C7.95306 6.02331 7.25885 5.73584 6.535 5.73584C5.81116 5.73584 5.11695 6.02331 4.605 6.53504L2.67438 8.46504C2.16243 8.97699 1.87482 9.67134 1.87482 10.3953C1.87482 11.1194 2.16243 11.8137 2.67438 12.3257C3.18633 12.8376 3.88068 13.1252 4.60469 13.1252C5.3287 13.1252 6.02305 12.8376 6.535 12.3257L7.5 11.3607" stroke="#E5E6E8" stroke-width="2" stroke-linecap="round" stroke-linejoin="round"/>
<path d="M6.535 8.46494C7.04695 8.97667 7.74116 9.26414 8.465 9.26414C9.18885 9.26414 9.88306 8.97667 10.395 8.46494L12.3256 6.53494C12.8376 6.02299 13.1252 5.32864 13.1252 4.60463C13.1252 3.88062 12.8376 3.18627 12.3256 2.67432C11.8137 2.16237 11.1193 1.87476 10.3953 1.87476C9.67131 1.87476 8.97695 2.16237 8.465 2.67432L7.5 3.63932" stroke="#E5E6E8" stroke-width="2" stroke-linecap="round" stroke-linejoin="round"/>
</svg>
