<svg width="174" height="195" viewBox="0 0 174 195" fill="none" xmlns="http://www.w3.org/2000/svg">
<g filter="url(#filter0_d)">
<path d="M15 57.5895L61.5439 11H120.456L167 57.5895V137.411L120.456 184H61.5439L15 137.411V57.5895Z" stroke="url(#paint0_linear)" shape-rendering="crispEdges"/>
</g>
<g clip-path="url(#clip0)">
<path d="M91.3466 56.9993C75.6024 56.9719 60.7835 66.3078 53.9826 81.0854L73.1054 81.1309V83.2222C67.217 82.5136 67.7355 85.5714 68.5691 88.8169L81.1224 120.278L90.3491 98.6498L86.1134 88.5138C84.5748 85.799 84.5424 82.7871 78.248 83.0707L78.3364 81.1435L106.383 81.2117V83.3713C103.098 83.564 99.1445 82.5455 101.24 89.2716L112.584 119.068L118.785 101.673C120.815 94.3812 118.904 87.3736 116.491 80.5019C115.149 75.892 115.775 72.0421 121.79 70.5149C112.609 61.1427 101.775 57.0175 91.347 56.9993H91.3466ZM129.491 84.5078L111.308 131.904C116.329 127.555 121.478 125.972 127.779 113.938C131.971 103.929 131.539 94.6565 129.491 84.5078V84.5078ZM52.0579 85.2757C50.2831 99.2678 50.4455 103.366 54.8388 114.792C60.5656 125.736 65.0065 128.041 71.3095 132.334L52.0578 85.2757H52.0579ZM92.0564 103.029L78.5813 135.542C88.04 138.241 96.5033 137.903 104.251 134.9L92.0564 103.029V103.029Z" fill="url(#paint1_linear)"/>
</g>
<defs>
<filter id="filter0_d" x="0.5" y="0.5" width="173" height="194" filterUnits="userSpaceOnUse" color-interpolation-filters="sRGB">
<feFlood flood-opacity="0" result="BackgroundImageFix"/>
<feColorMatrix in="SourceAlpha" type="matrix" values="0 0 0 0 0 0 0 0 0 0 0 0 0 0 0 0 0 0 127 0" result="hardAlpha"/>
<feOffset dx="-4"/>
<feGaussianBlur stdDeviation="5"/>
<feComposite in2="hardAlpha" operator="out"/>
<feColorMatrix type="matrix" values="0 0 0 0 0.239216 0 0 0 0 0.352941 0 0 0 0 0.996078 0 0 0 1 0"/>
<feBlend mode="normal" in2="BackgroundImageFix" result="effect1_dropShadow"/>
<feBlend mode="normal" in="SourceGraphic" in2="effect1_dropShadow" result="shape"/>
</filter>
<linearGradient id="paint0_linear" x1="-25.5333" y1="-29.5333" x2="165.981" y2="-30.7171" gradientUnits="userSpaceOnUse">
<stop offset="0.500322" stop-opacity="0"/>
<stop offset="1" stop-color="#3D5AFE"/>
</linearGradient>
<linearGradient id="paint1_linear" x1="26.2374" y1="95.2735" x2="123.381" y2="95.2735" gradientUnits="userSpaceOnUse">
<stop offset="0.276042" stop-color="#3D5AFE" stop-opacity="0"/>
<stop offset="1" stop-color="#3D5AFE"/>
</linearGradient>
<clipPath id="clip0">
<rect width="80" height="80.3754" fill="white" transform="translate(51 57)"/>
</clipPath>
</defs>
</svg>
