<svg width="87" height="102" viewBox="0 0 87 102" fill="none" xmlns="http://www.w3.org/2000/svg">
<g filter="url(#filter0_d)">
<path d="M10 32.4557L31.4347 11H58.5653L80 32.4557V69.2154L58.5653 90.6711H31.4347L10 69.2154V32.4557Z" stroke="url(#paint0_linear)" shape-rendering="crispEdges"/>
</g>
<g clip-path="url(#clip0)">
<path fill-rule="evenodd" clip-rule="evenodd" d="M26.3333 32H63.6667V69.3333H26.3333V32ZM54.8731 63.2978C53.1418 63.2978 52.1633 62.3956 51.412 61.1667L48.5607 62.8233C49.5904 64.858 51.6951 66.4104 54.954 66.4104C58.286 66.4104 60.7671 64.6807 60.7671 61.5213C60.7671 58.5922 59.084 57.2902 56.1036 56.01L55.2262 55.6351C53.7204 54.9818 53.0687 54.5571 53.0687 53.504C53.0687 52.6531 53.722 52.0013 54.7487 52.0013C55.7551 52.0013 56.4038 52.426 57.0058 53.504L59.7373 51.7509C58.5816 49.7178 56.9793 48.9416 54.7487 48.9416C51.6158 48.9416 49.6107 50.9451 49.6107 53.5771C49.6107 56.4316 51.2907 57.7833 53.8231 58.8613L54.7004 59.2378C56.3011 59.9378 57.2547 60.364 57.2547 61.5664C57.2547 62.5713 56.326 63.2978 54.8731 63.2978ZM41.2776 63.2744C40.072 63.2744 39.5696 62.45 39.0189 61.47L36.1629 63.1998C36.9904 64.9513 38.6176 66.4042 41.4253 66.4042C44.5349 66.4042 46.6644 64.7507 46.6644 61.1184V49.1407H43.1567V61.0718C43.1567 62.8249 42.4287 63.2744 41.276 63.2744H41.2776Z" fill="url(#paint1_linear)"/>
</g>
<defs>
<filter id="filter0_d" x="-4.5" y="0.5" width="91" height="100.671" filterUnits="userSpaceOnUse" color-interpolation-filters="sRGB">
<feFlood flood-opacity="0" result="BackgroundImageFix"/>
<feColorMatrix in="SourceAlpha" type="matrix" values="0 0 0 0 0 0 0 0 0 0 0 0 0 0 0 0 0 0 127 0" result="hardAlpha"/>
<feOffset dx="-4"/>
<feGaussianBlur stdDeviation="5"/>
<feComposite in2="hardAlpha" operator="out"/>
<feColorMatrix type="matrix" values="0 0 0 0 0.239216 0 0 0 0 0.352941 0 0 0 0 0.996078 0 0 0 1 0"/>
<feBlend mode="normal" in2="BackgroundImageFix" result="effect1_dropShadow"/>
<feBlend mode="normal" in="SourceGraphic" in2="effect1_dropShadow" result="shape"/>
</filter>
<linearGradient id="paint0_linear" x1="16.9466" y1="50.3006" x2="54.1048" y2="47.5178" gradientUnits="userSpaceOnUse">
<stop stop-color="#3D5AFE"/>
<stop offset="1" stop-color="#3D5AFE" stop-opacity="0"/>
</linearGradient>
<linearGradient id="paint1_linear" x1="14.7778" y1="49.7778" x2="60.1111" y2="49.7778" gradientUnits="userSpaceOnUse">
<stop stop-color="#3D5AFE"/>
<stop offset="1" stop-color="#3D5AFE" stop-opacity="0"/>
</linearGradient>
<clipPath id="clip0">
<rect width="37.3333" height="37.3333" fill="white" transform="translate(26.3333 32)"/>
</clipPath>
</defs>
</svg>
