<svg width="92" height="102" viewBox="0 0 92 102" fill="none" xmlns="http://www.w3.org/2000/svg">
<g filter="url(#filter0_d)">
<path d="M15 32.4557L36.4347 11H63.5653L85 32.4557V69.2154L63.5653 90.6711H36.4347L15 69.2154V32.4557Z" stroke="url(#paint0_linear)" shape-rendering="crispEdges"/>
</g>
<path fill-rule="evenodd" clip-rule="evenodd" d="M49.7492 69.4947L36.247 65.7458L32.2667 32H67.2667L63.2883 65.742L49.7492 69.4947ZM40.1358 47.2756L40.5072 51.4133H54.8514L54.3711 56.78L49.755 58.0283H49.7511L45.1428 56.7839L44.8472 53.4842H40.692L41.2714 59.9825L49.7492 62.3353L58.2406 59.9825L59.275 48.3858L59.3761 47.2756L60.1228 38.8969H39.3911L39.7683 43.0367H55.5883L55.2111 47.2756H40.1358Z" fill="url(#paint1_linear)"/>
<defs>
<filter id="filter0_d" x="0.5" y="0.5" width="91" height="100.671" filterUnits="userSpaceOnUse" color-interpolation-filters="sRGB">
<feFlood flood-opacity="0" result="BackgroundImageFix"/>
<feColorMatrix in="SourceAlpha" type="matrix" values="0 0 0 0 0 0 0 0 0 0 0 0 0 0 0 0 0 0 127 0" result="hardAlpha"/>
<feOffset dx="-4"/>
<feGaussianBlur stdDeviation="5"/>
<feComposite in2="hardAlpha" operator="out"/>
<feColorMatrix type="matrix" values="0 0 0 0 0.239216 0 0 0 0 0.352941 0 0 0 0 0.996078 0 0 0 1 0"/>
<feBlend mode="normal" in2="BackgroundImageFix" result="effect1_dropShadow"/>
<feBlend mode="normal" in="SourceGraphic" in2="effect1_dropShadow" result="shape"/>
</filter>
<linearGradient id="paint0_linear" x1="45.5" y1="40.5" x2="101.345" y2="42.6048" gradientUnits="userSpaceOnUse">
<stop stop-color="#3D5AFE" stop-opacity="0"/>
<stop offset="1" stop-color="#3D5AFE"/>
</linearGradient>
<linearGradient id="paint1_linear" x1="21.4333" y1="49.8546" x2="63.9333" y2="49.8546" gradientUnits="userSpaceOnUse">
<stop offset="0.276042" stop-color="#3D5AFE" stop-opacity="0"/>
<stop offset="1" stop-color="#3D5AFE"/>
</linearGradient>
</defs>
</svg>
