<svg width="20" height="21" viewBox="0 0 20 21" fill="none" xmlns="http://www.w3.org/2000/svg">
<circle cx="10" cy="10" r="10" fill="#E62222"/>
<path d="M8.20456 6.2H10.8086L10.3746 12.598H8.63856L8.20456 6.2ZM9.50656 16.112C9.1239 16.112 8.8019 15.9907 8.54056 15.748C8.28856 15.496 8.16256 15.1927 8.16256 14.838C8.16256 14.4833 8.28856 14.1893 8.54056 13.956C8.79256 13.7133 9.11456 13.592 9.50656 13.592C9.89856 13.592 10.2206 13.7133 10.4726 13.956C10.7246 14.1893 10.8506 14.4833 10.8506 14.838C10.8506 15.1927 10.7199 15.496 10.4586 15.748C10.2066 15.9907 9.88923 16.112 9.50656 16.112Z" fill="black"/>
</svg>
