<svg width="172" height="193" viewBox="0 0 172 193" fill="none" xmlns="http://www.w3.org/2000/svg">
<g filter="url(#filter0_d)">
<path d="M15 56.9764L60.9315 11H119.069L165 56.9764V135.747L119.069 181.724H60.9315L15 135.747V56.9764Z" stroke="url(#paint0_linear)" shape-rendering="crispEdges"/>
</g>
<path d="M53.8482 55L60.4287 128.8L89.959 137L119.566 128.79L126.157 55H53.8534H53.8482ZM111.832 79.1388H77.1977L78.0229 88.4099H111.012L108.527 116.198L89.959 121.343L71.4167 116.198L70.1509 101.981H79.2375L79.8832 109.207L89.9641 111.923L89.9846 111.918L100.071 109.197L101.116 97.4606H69.746L67.3065 70.088H112.647L111.838 79.1388H111.832Z" fill="url(#paint1_linear)"/>
<defs>
<filter id="filter0_d" x="0.5" y="0.5" width="171" height="191.724" filterUnits="userSpaceOnUse" color-interpolation-filters="sRGB">
<feFlood flood-opacity="0" result="BackgroundImageFix"/>
<feColorMatrix in="SourceAlpha" type="matrix" values="0 0 0 0 0 0 0 0 0 0 0 0 0 0 0 0 0 0 127 0" result="hardAlpha"/>
<feOffset dx="-4"/>
<feGaussianBlur stdDeviation="5"/>
<feComposite in2="hardAlpha" operator="out"/>
<feColorMatrix type="matrix" values="0 0 0 0 0.239216 0 0 0 0 0.352941 0 0 0 0 0.996078 0 0 0 1 0"/>
<feBlend mode="normal" in2="BackgroundImageFix" result="effect1_dropShadow"/>
<feBlend mode="normal" in="SourceGraphic" in2="effect1_dropShadow" result="shape"/>
</filter>
<linearGradient id="paint0_linear" x1="29.8855" y1="95.2156" x2="295.482" y2="85.9" gradientUnits="userSpaceOnUse">
<stop stop-color="#3D5AFE"/>
<stop offset="0.3125" stop-opacity="0"/>
</linearGradient>
<linearGradient id="paint1_linear" x1="31.467" y1="94.0476" x2="119.27" y2="94.0476" gradientUnits="userSpaceOnUse">
<stop stop-color="#3D5AFE"/>
<stop offset="1" stop-color="#3D5AFE" stop-opacity="0"/>
</linearGradient>
</defs>
</svg>
