<svg width="172" height="193" viewBox="0 0 172 193" fill="none" xmlns="http://www.w3.org/2000/svg">
<g filter="url(#filter0_d)">
<path d="M15 56.9764L60.9315 11H119.069L165 56.9764V135.747L119.069 181.724H60.9315L15 135.747V56.9764Z" stroke="url(#paint0_linear)" shape-rendering="crispEdges"/>
</g>
<path fill-rule="evenodd" clip-rule="evenodd" d="M50 56H130V136H50V56ZM111.157 123.067C107.447 123.067 105.35 121.133 103.74 118.5L97.63 122.05C99.8367 126.41 104.347 129.737 111.33 129.737C118.47 129.737 123.787 126.03 123.787 119.26C123.787 112.983 120.18 110.193 113.793 107.45L111.913 106.647C108.687 105.247 107.29 104.337 107.29 102.08C107.29 100.257 108.69 98.86 110.89 98.86C113.047 98.86 114.437 99.77 115.727 102.08L121.58 98.3233C119.103 93.9667 115.67 92.3033 110.89 92.3033C104.177 92.3033 99.88 96.5967 99.88 102.237C99.88 108.353 103.48 111.25 108.907 113.56L110.787 114.367C114.217 115.867 116.26 116.78 116.26 119.357C116.26 121.51 114.27 123.067 111.157 123.067ZM82.0233 123.017C79.44 123.017 78.3633 121.25 77.1833 119.15L71.0633 122.857C72.8367 126.61 76.3233 129.723 82.34 129.723C89.0033 129.723 93.5667 126.18 93.5667 118.397V92.73H86.05V118.297C86.05 122.053 84.49 123.017 82.02 123.017H82.0233Z" fill="url(#paint1_linear)"/>
<defs>
<filter id="filter0_d" x="0.5" y="0.5" width="171" height="191.724" filterUnits="userSpaceOnUse" color-interpolation-filters="sRGB">
<feFlood flood-opacity="0" result="BackgroundImageFix"/>
<feColorMatrix in="SourceAlpha" type="matrix" values="0 0 0 0 0 0 0 0 0 0 0 0 0 0 0 0 0 0 127 0" result="hardAlpha"/>
<feOffset dx="-4"/>
<feGaussianBlur stdDeviation="5"/>
<feComposite in2="hardAlpha" operator="out"/>
<feColorMatrix type="matrix" values="0 0 0 0 0.239216 0 0 0 0 0.352941 0 0 0 0 0.996078 0 0 0 1 0"/>
<feBlend mode="normal" in2="BackgroundImageFix" result="effect1_dropShadow"/>
<feBlend mode="normal" in="SourceGraphic" in2="effect1_dropShadow" result="shape"/>
</filter>
<linearGradient id="paint0_linear" x1="29.8855" y1="95.2156" x2="295.482" y2="85.9" gradientUnits="userSpaceOnUse">
<stop stop-color="#3D5AFE"/>
<stop offset="0.3125" stop-opacity="0"/>
</linearGradient>
<linearGradient id="paint1_linear" x1="25.2381" y1="94.0952" x2="122.381" y2="94.0952" gradientUnits="userSpaceOnUse">
<stop stop-color="#3D5AFE"/>
<stop offset="1" stop-color="#3D5AFE" stop-opacity="0"/>
</linearGradient>
</defs>
</svg>
