<svg width="174" height="195" viewBox="0 0 174 195" fill="none" xmlns="http://www.w3.org/2000/svg">
<g filter="url(#filter0_d)">
<path d="M15 57.5895L61.5439 11H120.456L167 57.5895V137.411L120.456 184H61.5439L15 137.411V57.5895Z" stroke="url(#paint0_linear)" shape-rendering="crispEdges"/>
</g>
<path d="M131.083 94.2833L94.7042 57.9124C93.6953 56.9082 92.3298 56.3444 90.9063 56.3444C89.4828 56.3444 88.1172 56.9082 87.1083 57.9124L79.5708 65.4583L89.15 75.0416C90.2802 74.6597 91.4948 74.6022 92.656 74.8756C93.8173 75.1489 94.8787 75.7422 95.7198 76.5881C96.561 77.4341 97.1483 78.4988 97.4151 79.6616C97.6819 80.8243 97.6174 82.0386 97.2292 83.1666L106.454 92.4041C107.82 91.9249 109.308 91.9247 110.674 92.4036C112.04 92.8825 113.202 93.8119 113.97 95.0391C114.737 96.2663 115.064 97.7181 114.897 99.1558C114.73 100.594 114.079 101.932 113.05 102.95C110.554 105.45 106.525 105.45 104.025 102.95C103.137 102.061 102.53 100.93 102.281 99.6988C102.031 98.4673 102.149 97.1896 102.621 96.025L93.9792 87.4291V110.083C94.5875 110.379 95.1708 110.787 95.675 111.292C96.8663 112.491 97.5349 114.113 97.5349 115.804C97.5349 117.495 96.8663 119.117 95.675 120.317C95.0806 120.912 94.3746 121.384 93.5974 121.707C92.8203 122.029 91.9872 122.195 91.1458 122.195C90.3045 122.195 89.4714 122.029 88.6943 121.707C87.9171 121.384 87.2111 120.912 86.6167 120.317C86.0235 119.725 85.553 119.023 85.2319 118.249C84.9108 117.475 84.7455 116.646 84.7455 115.808C84.7455 114.971 84.9108 114.141 85.2319 113.368C85.553 112.594 86.0235 111.891 86.6167 111.3C87.25 110.675 87.9583 110.2 88.7167 109.887V87.0125C87.9376 86.6935 87.2295 86.2233 86.6332 85.629C86.037 85.0348 85.5644 84.3283 85.2428 83.5503C84.9213 82.7723 84.7571 81.9383 84.7597 81.0965C84.7624 80.2547 84.9319 79.4217 85.2583 78.6458L75.8417 69.1833L50.8958 94.1083C48.8125 96.2083 48.8125 99.6083 50.8958 101.708L87.275 138.079C87.7728 138.578 88.3641 138.974 89.015 139.244C89.666 139.514 90.3639 139.653 91.0688 139.653C91.7736 139.653 92.4715 139.514 93.1225 139.244C93.7735 138.974 94.3648 138.578 94.8625 138.079L131.071 101.875C131.572 101.379 131.971 100.788 132.243 100.137C132.515 99.4858 132.656 98.7873 132.657 98.0817C132.658 97.3761 132.52 96.6772 132.25 96.0253C131.98 95.3734 131.583 94.7814 131.083 94.2833Z" fill="url(#paint1_linear)"/>
<defs>
<filter id="filter0_d" x="0.5" y="0.5" width="173" height="194" filterUnits="userSpaceOnUse" color-interpolation-filters="sRGB">
<feFlood flood-opacity="0" result="BackgroundImageFix"/>
<feColorMatrix in="SourceAlpha" type="matrix" values="0 0 0 0 0 0 0 0 0 0 0 0 0 0 0 0 0 0 127 0" result="hardAlpha"/>
<feOffset dx="-4"/>
<feGaussianBlur stdDeviation="5"/>
<feComposite in2="hardAlpha" operator="out"/>
<feColorMatrix type="matrix" values="0 0 0 0 0.239216 0 0 0 0 0.352941 0 0 0 0 0.996078 0 0 0 1 0"/>
<feBlend mode="normal" in2="BackgroundImageFix" result="effect1_dropShadow"/>
<feBlend mode="normal" in="SourceGraphic" in2="effect1_dropShadow" result="shape"/>
</filter>
<linearGradient id="paint0_linear" x1="-25.5333" y1="-29.5333" x2="165.981" y2="-30.7171" gradientUnits="userSpaceOnUse">
<stop offset="0.500322" stop-opacity="0"/>
<stop offset="1" stop-color="#3D5AFE"/>
</linearGradient>
<linearGradient id="paint1_linear" x1="23.5427" y1="96.0153" x2="124.721" y2="96.0153" gradientUnits="userSpaceOnUse">
<stop offset="0.276042" stop-color="#3D5AFE" stop-opacity="0"/>
<stop offset="1" stop-color="#3D5AFE"/>
</linearGradient>
</defs>
</svg>
