<svg width="15" height="15" viewBox="0 0 15 15" fill="none" xmlns="http://www.w3.org/2000/svg">
<path d="M5 1.875C3.27688 1.875 1.875 3.27688 1.875 5V10C1.875 11.7231 3.27688 13.125 5 13.125H10C11.7231 13.125 13.125 11.7231 13.125 10V5C13.125 3.27688 11.7231 1.875 10 1.875H5ZM5 3.125H10C11.0337 3.125 11.875 3.96625 11.875 5V10C11.875 11.0337 11.0337 11.875 10 11.875H5C3.96625 11.875 3.125 11.0337 3.125 10V5C3.125 3.96625 3.96625 3.125 5 3.125ZM10.625 3.75C10.4592 3.75 10.3003 3.81585 10.1831 3.93306C10.0658 4.05027 10 4.20924 10 4.375C10 4.54076 10.0658 4.69973 10.1831 4.81694C10.3003 4.93415 10.4592 5 10.625 5C10.7908 5 10.9497 4.93415 11.0669 4.81694C11.1842 4.69973 11.25 4.54076 11.25 4.375C11.25 4.20924 11.1842 4.05027 11.0669 3.93306C10.9497 3.81585 10.7908 3.75 10.625 3.75ZM7.5 4.375C5.77688 4.375 4.375 5.77688 4.375 7.5C4.375 9.22312 5.77688 10.625 7.5 10.625C9.22312 10.625 10.625 9.22312 10.625 7.5C10.625 5.77688 9.22312 4.375 7.5 4.375ZM7.5 5.625C8.53375 5.625 9.375 6.46625 9.375 7.5C9.375 8.53375 8.53375 9.375 7.5 9.375C6.46625 9.375 5.625 8.53375 5.625 7.5C5.625 6.46625 6.46625 5.625 7.5 5.625Z" fill="#00000C"/>
</svg>
