<svg width="16" height="16" viewBox="0 0 16 16" fill="none" xmlns="http://www.w3.org/2000/svg">
<path d="M2.53766 2C1.57655 2 1 2.54329 1 3.26673C1 3.99017 1.57662 4.5314 2.44128 4.5314C3.40239 4.5314 3.97894 3.99017 3.97894 3.26673C3.97894 2.54329 3.40232 2 2.53766 2ZM1.07666 5.88463V13.2667H3.90666V5.88463H1.07666ZM6.24162 5.88463V13.2667H9.07161V9.23168C9.07161 8.03051 9.98297 7.85784 10.2566 7.85784C10.5303 7.85784 11.262 8.11593 11.262 9.23168V13.2667H14V9.23168C14 6.91477 12.9051 5.88463 11.5358 5.88463C10.1665 5.88463 9.43609 6.31338 9.07161 6.91449V5.88463H6.24162Z" fill="#00000C"/>
</svg>
