<svg width="15" height="15" viewBox="0 0 15 15" fill="none" xmlns="http://www.w3.org/2000/svg">
<path d="M7.50732 1.25C4.06607 1.25 1.26468 4.04898 1.26343 7.49023C1.2628 8.59023 1.55092 9.6641 2.09717 10.6104L1.25 13.75L4.52026 12.9773C5.43214 13.4748 6.45866 13.7359 7.50366 13.7366H7.5061C10.9467 13.7366 13.7469 10.937 13.7488 7.49634C13.75 5.82821 13.1014 4.25983 11.9226 3.07983C10.7439 1.90046 9.17732 1.25063 7.50732 1.25ZM7.5061 2.5C8.8411 2.50063 10.0957 3.02112 11.0388 3.96362C11.9819 4.90737 12.5 6.16137 12.4988 7.49512C12.4975 10.2476 10.2586 12.4866 7.50488 12.4866C6.67176 12.4859 5.8465 12.2768 5.11963 11.8799L4.69849 11.6504L4.2334 11.7603L3.00293 12.0508L3.30322 10.9351L3.43872 10.4346L3.17993 9.98535C2.74368 9.23035 2.5128 8.36711 2.51343 7.49023C2.51468 4.73898 4.75423 2.5 7.5061 2.5ZM5.29785 4.60938C5.19348 4.60938 5.02472 4.64844 4.88159 4.80469C4.73847 4.96031 4.33472 5.33724 4.33472 6.10474C4.33472 6.87224 4.8938 7.61413 4.97192 7.71851C5.04942 7.82226 6.05109 9.44702 7.63672 10.072C8.95422 10.5914 9.22181 10.4889 9.50806 10.4626C9.79431 10.437 10.4315 10.0861 10.5615 9.72168C10.6915 9.3573 10.6918 9.04387 10.6531 8.97949C10.6143 8.91449 10.5103 8.87573 10.354 8.79761C10.1984 8.71948 9.43145 8.34289 9.28833 8.29102C9.14521 8.23914 9.04052 8.21289 8.93677 8.36914C8.83302 8.52539 8.53485 8.87574 8.4436 8.97949C8.35235 9.08387 8.26172 9.0979 8.10547 9.01978C7.94922 8.94103 7.44684 8.77588 6.85059 8.24463C6.38684 7.8315 6.07392 7.32178 5.98267 7.16553C5.89204 7.0099 5.97412 6.92442 6.05225 6.84692C6.12225 6.77692 6.20727 6.66474 6.2854 6.57349C6.3629 6.48224 6.38978 6.41723 6.44165 6.31348C6.49353 6.20973 6.46697 6.11816 6.42822 6.04004C6.38947 5.96191 6.08602 5.19156 5.94727 4.88281C5.83039 4.62344 5.70695 4.61741 5.5957 4.61304C5.50508 4.60929 5.4016 4.60938 5.29785 4.60938Z" fill="#010102"/>
</svg>
